<svg preserveAspectRatio="none" width="100%" height="100%" overflow="visible" style="display: block;" viewBox="0 0 44 39.1111" fill="none" xmlns="http://www.w3.org/2000/svg">
<path id="Vector" d="M40.3425 23.0174L43.9536 7.12854C44.2144 5.98133 43.3424 4.88889 42.1659 4.88889H12.1617L11.4615 1.4659C11.2871 0.612715 10.5363 0 9.66541 0H1.83333C0.820799 0 0 0.820799 0 1.83333V3.05556C0 4.06809 0.820799 4.88889 1.83333 4.88889H7.17162L12.5378 31.1235C11.254 31.8618 10.3889 33.2461 10.3889 34.8333C10.3889 37.1959 12.3041 39.1111 14.6667 39.1111C17.0292 39.1111 18.9444 37.1959 18.9444 34.8333C18.9444 33.636 18.452 32.5543 17.6593 31.7778H33.674C32.8814 32.5543 32.3889 33.636 32.3889 34.8333C32.3889 37.1959 34.3041 39.1111 36.6667 39.1111C39.0292 39.1111 40.9445 37.1959 40.9445 34.8333C40.9445 33.1396 39.96 31.676 38.5322 30.983L38.9536 29.1285C39.2143 27.9813 38.3423 26.8889 37.1659 26.8889H16.6617L16.1618 24.4444H38.5548C39.4108 24.4444 40.1528 23.8521 40.3425 23.0174Z" fill="var(--fill-0, black)"/>
</svg>
