<svg preserveAspectRatio="none" width="100%" height="100%" overflow="visible" style="display: block;" viewBox="0 0 19.483 19.4784" fill="none" xmlns="http://www.w3.org/2000/svg">
<path id="Vector" d="M18.9902 16.2304L15.4142 12.6544C16.4757 10.9174 16.8634 8.85134 16.5037 6.84765C16.144 4.84397 15.0619 3.04178 13.4625 1.78245C11.863 0.523125 9.85725 -0.105879 7.8251 0.014584C5.79295 0.135047 3.87555 0.99661 2.43608 2.43608C0.99661 3.87555 0.135047 5.79295 0.014584 7.8251C-0.105879 9.85725 0.523126 11.863 1.78245 13.4625C3.04178 15.0619 4.84397 16.144 6.84765 16.5037C8.85134 16.8634 10.9174 16.4757 12.6544 15.4142L16.235 18.9856C16.607 19.3162 17.0913 19.4922 17.5889 19.4776C18.0864 19.4629 18.5595 19.2588 18.9114 18.9068C19.2634 18.5549 19.4675 18.0818 19.4822 17.5843C19.4968 17.0867 19.3208 16.6024 18.9902 16.2304V16.2304ZM1.9998 8.33791C1.9998 7.08344 2.3718 5.85715 3.06874 4.81409C3.76569 3.77104 4.75628 2.95808 5.91526 2.47802C7.07423 1.99796 8.34954 1.87235 9.5799 2.11708C10.8103 2.36182 11.9404 2.9659 12.8275 3.85294C13.7145 4.73999 14.3186 5.87015 14.5633 7.10051C14.8081 8.33087 14.6825 9.60618 14.2024 10.7652C13.7223 11.9241 12.9094 12.9147 11.8663 13.6117C10.8233 14.3086 9.59697 14.6806 8.3425 14.6806C6.66092 14.6786 5.04878 14.0098 3.85972 12.8207C2.67066 11.6316 2.00178 10.0195 1.9998 8.33791V8.33791Z" fill="var(--fill-0, #1E1E1E)"/>
</svg>
